<?xml version="1.0" encoding="UTF-8" standalone="no"?>
<!DOCTYPE svg PUBLIC "-//W3C//DTD SVG 1.1//EN"
 "http://www.w3.org/Graphics/SVG/1.1/DTD/svg11.dtd">
<!-- Generated by graphviz version 9.0.0 (20230911.1827)
 -->
<!-- Title: G Pages: 1 -->
<svg width="411pt" height="513pt"
 viewBox="0.00 0.00 410.52 513.00" xmlns="http://www.w3.org/2000/svg" xmlns:xlink="http://www.w3.org/1999/xlink">
<g id="graph0" class="graph" transform="scale(1 1) rotate(0) translate(4 509)">
<title>G</title><style>.edge>path:hover{stroke-width:8}</style>
<polygon fill="white" stroke="none" points="-4,4 -4,-509 406.52,-509 406.52,4 -4,4"/>
<!-- main_py -->
<g id="node1" class="node">
<title>main_py</title><style>.edge>path:hover{stroke-width:8}</style>
<ellipse fill="#624b8b" stroke="black" cx="267.49" cy="-18" rx="29.88" ry="18"/>
<text text-anchor="middle" x="267.49" y="-14.12" font-family="Helvetica,sans-Serif" font-size="10.00" fill="#ffffff">main.py</text>
</g>
<!-- actions -->
<g id="node2" class="node">
<title>actions</title><style>.edge>path:hover{stroke-width:8}</style>
<polygon fill="#9d4343" stroke="black" points="269.49,-289 266.49,-293 245.49,-293 242.49,-289 215.49,-289 215.49,-253 269.49,-253 269.49,-289"/>
<text text-anchor="middle" x="242.49" y="-267.12" font-family="Helvetica,sans-Serif" font-size="10.00" fill="#ffffff">actions</text>
</g>
<!-- input_handlers -->
<g id="node9" class="node">
<title>input_handlers</title><style>.edge>path:hover{stroke-width:8}</style>
<polygon fill="#2b3b82" stroke="black" points="257.99,-217 254.99,-221 233.99,-221 230.99,-217 178.99,-217 178.99,-181 257.99,-181 257.99,-217"/>
<text text-anchor="middle" x="218.49" y="-195.12" font-family="Helvetica,sans-Serif" font-size="10.00" fill="#ffffff">input_handlers</text>
</g>
<!-- actions&#45;&gt;input_handlers -->
<g id="edge1" class="edge">
<title>actions&#45;&gt;input_handlers</title><style>.edge>path:hover{stroke-width:8}</style>
<path fill="none" stroke="black" d="M236.55,-252.7C234,-245.24 230.94,-236.32 228.07,-227.97"/>
<polygon fill="#9d4343" stroke="black" points="231.39,-226.86 224.84,-218.54 224.77,-229.13 231.39,-226.86"/>
</g>
<!-- color -->
<g id="node3" class="node">
<title>color</title><style>.edge>path:hover{stroke-width:8}</style>
<polygon fill="#db8c2f" stroke="black" points="133.49,-361 130.49,-365 109.49,-365 106.49,-361 79.49,-361 79.49,-325 133.49,-325 133.49,-361"/>
<text text-anchor="middle" x="106.49" y="-339.12" font-family="Helvetica,sans-Serif" font-size="10.00" fill="#000000">color</text>
</g>
<!-- color&#45;&gt;main_py -->
<g id="edge4" class="edge">
<title>color&#45;&gt;main_py</title><style>.edge>path:hover{stroke-width:8}</style>
<path fill="none" stroke="black" d="M25.49,-270C25.09,-238.89 4.36,-222.84 25.49,-200"/>
<path fill="none" stroke="black" d="M79.23,-331.57C55.85,-320.64 25.85,-300.99 25.49,-272"/>
</g>
<!-- color&#45;&gt;actions -->
<g id="edge2" class="edge">
<title>color&#45;&gt;actions</title><style>.edge>path:hover{stroke-width:8}</style>
<path fill="none" stroke="black" d="M133.68,-328C154.25,-317.42 182.72,-302.76 205.38,-291.1"/>
<polygon fill="#db8c2f" stroke="black" points="206.7,-294.35 213.99,-286.67 203.5,-288.13 206.7,-294.35"/>
</g>
<!-- color&#45;&gt;input_handlers -->
<g id="edge3" class="edge">
<title>color&#45;&gt;input_handlers</title><style>.edge>path:hover{stroke-width:8}</style>
<path fill="none" stroke="black" d="M25.49,-270C25.1,-239.68 110.49,-218.74 167.81,-208.11"/>
<polygon fill="#db8c2f" stroke="black" points="168.15,-211.6 177.37,-206.39 166.91,-204.71 168.15,-211.6"/>
</g>
<!-- setup_game -->
<g id="node10" class="node">
<title>setup_game</title><style>.edge>path:hover{stroke-width:8}</style>
<polygon fill="#893091" stroke="black" points="302.11,-145 299.11,-149 278.11,-149 275.11,-145 232.86,-145 232.86,-109 302.11,-109 302.11,-145"/>
<text text-anchor="middle" x="267.49" y="-123.12" font-family="Helvetica,sans-Serif" font-size="10.00" fill="#ffffff">setup_game</text>
</g>
<!-- color&#45;&gt;setup_game -->
<g id="edge5" class="edge">
<title>color&#45;&gt;setup_game</title><style>.edge>path:hover{stroke-width:8}</style>
<path fill="none" stroke="black" d="M25.49,-270C25.04,-234.6 42.94,-228.83 63.49,-200"/>
</g>
<!-- engine -->
<g id="node4" class="node">
<title>engine</title><style>.edge>path:hover{stroke-width:8}</style>
<polygon fill="#a1ae1e" stroke="black" points="269.49,-361 266.49,-365 245.49,-365 242.49,-361 215.49,-361 215.49,-325 269.49,-325 269.49,-361"/>
<text text-anchor="middle" x="242.49" y="-339.12" font-family="Helvetica,sans-Serif" font-size="10.00" fill="#000000">engine</text>
</g>
<!-- engine&#45;&gt;actions -->
<g id="edge6" class="edge">
<title>engine&#45;&gt;actions</title><style>.edge>path:hover{stroke-width:8}</style>
<path fill="none" stroke="black" d="M242.49,-324.7C242.49,-317.41 242.49,-308.73 242.49,-300.54"/>
<polygon fill="#a1ae1e" stroke="black" points="245.99,-300.62 242.49,-290.62 238.99,-300.62 245.99,-300.62"/>
</g>
<!-- game_world -->
<g id="node8" class="node">
<title>game_world</title><style>.edge>path:hover{stroke-width:8}</style>
<polygon fill="#3d96b8" stroke="black" points="121.74,-289 118.74,-293 97.74,-293 94.74,-289 53.24,-289 53.24,-253 121.74,-253 121.74,-289"/>
<text text-anchor="middle" x="87.49" y="-267.12" font-family="Helvetica,sans-Serif" font-size="10.00" fill="#ffffff">game_world</text>
</g>
<!-- engine&#45;&gt;game_world -->
<g id="edge7" class="edge">
<title>engine&#45;&gt;game_world</title><style>.edge>path:hover{stroke-width:8}</style>
<path fill="none" stroke="black" d="M204.85,-325C183,-315.14 155.34,-302.64 132.36,-292.27"/>
<polygon fill="#a1ae1e" stroke="black" points="203.2,-328.1 213.75,-329.02 206.08,-321.72 203.2,-328.1"/>
<polygon fill="#a1ae1e" stroke="black" points="134.1,-289.21 123.55,-288.29 131.22,-295.59 134.1,-289.21"/>
</g>
<!-- engine&#45;&gt;input_handlers -->
<g id="edge8" class="edge">
<title>engine&#45;&gt;input_handlers</title><style>.edge>path:hover{stroke-width:8}</style>
<path fill="none" stroke="black" d="M257.97,-324.77C272.22,-306.72 289.58,-277.61 278.49,-253 273.55,-242.05 265.11,-232.46 256.1,-224.55"/>
<polygon fill="#a1ae1e" stroke="black" points="258.53,-222.02 248.55,-218.45 254.13,-227.46 258.53,-222.02"/>
</g>
<!-- engine&#45;&gt;setup_game -->
<g id="edge9" class="edge">
<title>engine&#45;&gt;setup_game</title><style>.edge>path:hover{stroke-width:8}</style>
<path fill="none" stroke="black" d="M220.61,-324.59C198.04,-306.64 161.82,-277.84 130.49,-253 100.73,-229.41 41.34,-230.84 63.49,-200"/>
</g>
<!-- entity -->
<g id="node5" class="node">
<title>entity</title><style>.edge>path:hover{stroke-width:8}</style>
<polygon fill="#6ddb2f" stroke="black" points="348.49,-433 345.49,-437 324.49,-437 321.49,-433 294.49,-433 294.49,-397 348.49,-397 348.49,-433"/>
<text text-anchor="middle" x="321.49" y="-411.12" font-family="Helvetica,sans-Serif" font-size="10.00" fill="#000000">entity</text>
</g>
<!-- entity&#45;&gt;actions -->
<g id="edge10" class="edge">
<title>entity&#45;&gt;actions</title><style>.edge>path:hover{stroke-width:8}</style>
<path fill="none" stroke="black" d="M335.49,-342C330.2,-314.64 303.63,-296.45 280.24,-285.48"/>
<polygon fill="#6ddb2f" stroke="black" points="281.75,-282.32 271.19,-281.55 278.96,-288.74 281.75,-282.32"/>
<path fill="none" stroke="black" d="M328.71,-396.75C333.74,-382.59 338.96,-362.01 335.49,-344"/>
</g>
<!-- entity&#45;&gt;engine -->
<g id="edge11" class="edge">
<title>entity&#45;&gt;engine</title><style>.edge>path:hover{stroke-width:8}</style>
<path fill="none" stroke="black" d="M301.96,-396.7C292.46,-388.28 280.88,-378.02 270.46,-368.79"/>
<polygon fill="#6ddb2f" stroke="black" points="273,-366.36 263.2,-362.35 268.36,-371.6 273,-366.36"/>
</g>
<!-- entity_factories -->
<g id="node6" class="node">
<title>entity_factories</title><style>.edge>path:hover{stroke-width:8}</style>
<polygon fill="#4cb35f" stroke="black" points="358.86,-217 355.86,-221 334.86,-221 331.86,-217 276.11,-217 276.11,-181 358.86,-181 358.86,-217"/>
<text text-anchor="middle" x="317.49" y="-195.12" font-family="Helvetica,sans-Serif" font-size="10.00" fill="#000000">entity_factories</text>
</g>
<!-- entity&#45;&gt;entity_factories -->
<g id="edge12" class="edge">
<title>entity&#45;&gt;entity_factories</title><style>.edge>path:hover{stroke-width:8}</style>
<path fill="none" stroke="black" d="M335.49,-270C330.22,-256.69 326.07,-241.34 323.09,-228.41"/>
<polygon fill="#6ddb2f" stroke="black" points="326.56,-227.86 321.01,-218.83 319.72,-229.35 326.56,-227.86"/>
</g>
<!-- entity&#45;&gt;input_handlers -->
<g id="edge13" class="edge">
<title>entity&#45;&gt;input_handlers</title><style>.edge>path:hover{stroke-width:8}</style>
<path fill="none" stroke="black" d="M335.49,-270C329.63,-255.18 297.57,-236.59 268.49,-222.29"/>
<polygon fill="#6ddb2f" stroke="black" points="270.27,-219.26 259.75,-218.08 267.24,-225.57 270.27,-219.26"/>
<path fill="none" stroke="black" d="M335.49,-342C329.59,-311.45 346.93,-300.93 335.49,-272"/>
</g>
<!-- entity_factories&#45;&gt;setup_game -->
<g id="edge14" class="edge">
<title>entity_factories&#45;&gt;setup_game</title><style>.edge>path:hover{stroke-width:8}</style>
<path fill="none" stroke="black" d="M305.13,-180.7C299.43,-172.73 292.56,-163.1 286.25,-154.26"/>
<polygon fill="#4cb35f" stroke="black" points="289.24,-152.44 280.58,-146.34 283.55,-156.51 289.24,-152.44"/>
</g>
<!-- exceptions -->
<g id="node7" class="node">
<title>exceptions</title><style>.edge>path:hover{stroke-width:8}</style>
<polygon fill="#22e7b1" stroke="black" points="216.11,-433 213.11,-437 192.11,-437 189.11,-433 152.86,-433 152.86,-397 216.11,-397 216.11,-433"/>
<text text-anchor="middle" x="184.49" y="-411.12" font-family="Helvetica,sans-Serif" font-size="10.00" fill="#000000">exceptions</text>
</g>
<!-- exceptions&#45;&gt;main_py -->
<g id="edge19" class="edge">
<title>exceptions&#45;&gt;main_py</title><style>.edge>path:hover{stroke-width:8}</style>
<path fill="none" stroke="black" d="M25.49,-198C34.36,-188.41 38.26,-187.7 49.49,-181 72.7,-167.15 266.74,-100.02 267.49,-73"/>
<path fill="none" stroke="black" d="M152.38,-403.5C128.29,-394.63 95.32,-380.26 70.49,-361 11.78,-315.46 -27.98,-251.6 25.49,-200"/>
<path fill="none" stroke="black" d="M267.49,-72C266.86,-64.08 266.66,-55.48 266.66,-47.55"/>
<polygon fill="#22e7b1" stroke="black" points="270.16,-47.77 266.78,-37.73 263.16,-47.68 270.16,-47.77"/>
</g>
<!-- exceptions&#45;&gt;actions -->
<g id="edge15" class="edge">
<title>exceptions&#45;&gt;actions</title><style>.edge>path:hover{stroke-width:8}</style>
<path fill="none" stroke="black" d="M187.49,-342C186.05,-324.56 196.64,-308.86 208.9,-296.77"/>
<polygon fill="#22e7b1" stroke="black" points="210.9,-299.68 215.97,-290.37 206.2,-294.49 210.9,-299.68"/>
</g>
<!-- exceptions&#45;&gt;engine -->
<g id="edge16" class="edge">
<title>exceptions&#45;&gt;engine</title><style>.edge>path:hover{stroke-width:8}</style>
<path fill="none" stroke="black" d="M198.82,-396.7C205.57,-388.56 213.74,-378.69 221.19,-369.7"/>
<polygon fill="#22e7b1" stroke="black" points="223.66,-372.2 227.35,-362.27 218.27,-367.74 223.66,-372.2"/>
</g>
<!-- exceptions&#45;&gt;game_world -->
<g id="edge17" class="edge">
<title>exceptions&#45;&gt;game_world</title><style>.edge>path:hover{stroke-width:8}</style>
<path fill="none" stroke="black" d="M187.49,-342C186.31,-327.63 158.11,-308.75 131.96,-294.22"/>
<polygon fill="#22e7b1" stroke="black" points="133.89,-291.29 123.43,-289.6 130.56,-297.44 133.89,-291.29"/>
<path fill="none" stroke="black" d="M186.42,-396.72C187.72,-382.53 188.96,-361.94 187.49,-344"/>
</g>
<!-- exceptions&#45;&gt;input_handlers -->
<g id="edge18" class="edge">
<title>exceptions&#45;&gt;input_handlers</title><style>.edge>path:hover{stroke-width:8}</style>
<path fill="none" stroke="black" d="M187.49,-342C184.18,-301.77 197.11,-256.37 207.28,-227.98"/>
<polygon fill="#22e7b1" stroke="black" points="210.53,-229.27 210.74,-218.68 203.97,-226.83 210.53,-229.27"/>
</g>
<!-- game_world&#45;&gt;setup_game -->
<g id="edge21" class="edge">
<title>game_world&#45;&gt;setup_game</title><style>.edge>path:hover{stroke-width:8}</style>
<path fill="none" stroke="black" d="M73.18,-252.58C62.69,-237.57 52.1,-215.86 63.49,-200"/>
</g>
<!-- input_handlers&#45;&gt;main_py -->
<g id="edge22" class="edge">
<title>input_handlers&#45;&gt;main_py</title><style>.edge>path:hover{stroke-width:8}</style>
<path fill="none" stroke="black" d="M258.16,-183.62C308.14,-165.22 387.45,-134.86 386.49,-128"/>
<path fill="none" stroke="black" d="M386.49,-126C378.43,-68.67 265.89,-130.88 267.49,-73"/>
</g>
<!-- input_handlers&#45;&gt;setup_game -->
<g id="edge23" class="edge">
<title>input_handlers&#45;&gt;setup_game</title><style>.edge>path:hover{stroke-width:8}</style>
<path fill="none" stroke="black" d="M237.03,-171.51C240.99,-165.85 245.18,-159.86 249.14,-154.2"/>
<polygon fill="#2b3b82" stroke="black" points="234.33,-169.26 231.47,-179.46 240.07,-173.27 234.33,-169.26"/>
<polygon fill="#2b3b82" stroke="black" points="251.78,-156.54 254.64,-146.34 246.04,-152.53 251.78,-156.54"/>
</g>
<!-- setup_game&#45;&gt;main_py -->
<g id="edge25" class="edge">
<title>setup_game&#45;&gt;main_py</title><style>.edge>path:hover{stroke-width:8}</style>
<path fill="none" stroke="black" d="M267.25,-108.81C267.16,-98.44 267.16,-84.96 267.49,-73"/>
</g>
<!-- tcod -->
<g id="node11" class="node">
<title>tcod</title><style>.edge>path:hover{stroke-width:8}</style>
<polygon fill="#950353" stroke="black" points="271.49,-505 268.49,-509 247.49,-509 244.49,-505 217.49,-505 217.49,-469 271.49,-469 271.49,-505"/>
<text text-anchor="middle" x="244.49" y="-483.12" font-family="Helvetica,sans-Serif" font-size="10.00" fill="#ffffff">tcod</text>
</g>
<!-- tcod&#45;&gt;main_py -->
<g id="edge28" class="edge">
<title>tcod&#45;&gt;main_py</title><style>.edge>path:hover{stroke-width:8}</style>
<path fill="none" stroke="black" d="M386.49,-270C354.74,-215.46 395.27,-190.5 386.49,-128"/>
</g>
<!-- tcod&#45;&gt;engine -->
<g id="edge26" class="edge">
<title>tcod&#45;&gt;engine</title><style>.edge>path:hover{stroke-width:8}</style>
<path fill="none" stroke="black" d="M244.24,-468.59C243.9,-444.61 243.29,-401.14 242.89,-372.42"/>
<polygon fill="#950353" stroke="black" points="246.39,-372.57 242.75,-362.62 239.39,-372.67 246.39,-372.57"/>
</g>
<!-- tcod&#45;&gt;input_handlers -->
<g id="edge27" class="edge">
<title>tcod&#45;&gt;input_handlers</title><style>.edge>path:hover{stroke-width:8}</style>
<path fill="none" stroke="black" d="M386.49,-270C383.82,-264.2 317.44,-237.78 268.93,-219.11"/>
<polygon fill="#950353" stroke="black" points="270.27,-215.88 259.68,-215.57 267.77,-222.41 270.27,-215.88"/>
<path fill="none" stroke="black" d="M271.82,-480.71C297.99,-474.15 336.49,-460.32 357.49,-433 401.79,-375.35 416.87,-338.06 386.49,-272"/>
</g>
<!-- tcod&#45;&gt;setup_game -->
<g id="edge29" class="edge">
<title>tcod&#45;&gt;setup_game</title><style>.edge>path:hover{stroke-width:8}</style>
<path fill="none" stroke="black" d="M217.02,-474.34C163.24,-449.66 46.25,-386.27 11.49,-289 6.1,-273.93 5.43,-267.81 11.49,-253 23.97,-222.45 44.33,-226.87 63.49,-200"/>
<path fill="none" stroke="black" d="M63.49,-198C81.14,-171.12 166.96,-148.79 221.51,-137.02"/>
<polygon fill="#950353" stroke="black" points="222.1,-140.47 231.16,-134.98 220.65,-133.62 222.1,-140.47"/>
</g>
</g>
</svg>
